# xmcd CD database file
#
# Track frame offsets:
#	150
#	17386
#	29745
#	41270
#	54405
#	65184
#	77430
#	96181
#	106062
#	120555
#	132987
#	145677
#	157697
#	170558
#	184599
#	201352
#	215487
#	226704
#	237739
#	253353
#	264724
#	277371
#	289071
#	301838
#
# Disc length: 4162 seconds
#
# Revision: 0
# Processed by: cddbd v1.5.1PL2 Copyright (c) Steve Scherf et al.
# Submitted via: CDex 1.51
#
DISCID=5a104018
DTITLE=Various Artist - Easy Listening Country Favourites CD3
DYEAR=2000
DGENRE=Country
TTITLE0=Dr. Hook and the Medicine Show - Sylvia's Mother
TTITLE1=Loretta Lynn - I Fall To Pieces
TTITLE2=Freddy Fender - Before The Next Teardrops Fall
TTITLE3=Donna Fargo - Daddy
TTITLE4=Ferlin Husky - Gone
TTITLE5=George McCormick - I'm So Lonesome I Could Cry
TTITLE6=Wink Martindale - Deck of Cards
TTITLE7=Hank Locklin - Please Help Me, I'm Falling
TTITLE8=Connie Francis - Raining in My Heart
TTITLE9=Charlie Rich - Behind Closed Doors
TTITLE10=Don Williams - You're My Best Friend
TTITLE11=Tammy Wynette - There goes my Everything
TTITLE12=Dolly Parton - Here You Come Again
TTITLE13=Johnny Cash - Orange Blossom Special
TTITLE14=The Jordanairs - Michael Row teh Boat Ashore
TTITLE15=Kenny Rogers - You Light Up My Life
TTITLE16=Conway Twitty - Hello Darlin'
TTITLE17=George McCormick - Hey Good Lookin'
TTITLE18=Dolly Parton - Heartbreaker
TTITLE19=Frankie Laine - Mule Train
TTITLE20=Jim Reeves - Bimbo
TTITLE21=Donna Fargo - The Happiest Girl in the Whole USA
TTITLE22=Bily Jo Spears - What I've Got in Mind
TTITLE23=Dave Dudley - Six Days on the Road
EXTD=YEAR: 2000
EXTT0=
EXTT1=
EXTT2=
EXTT3=
EXTT4=
EXTT5=
EXTT6=
EXTT7=
EXTT8=
EXTT9=
EXTT10=
EXTT11=
EXTT12=
EXTT13=
EXTT14=
EXTT15=
EXTT16=
EXTT17=
EXTT18=
EXTT19=
EXTT20=
EXTT21=
EXTT22=
EXTT23=
PLAYORDER=
